<svg width="92" height="99" viewBox="0 0 92 99" fill="none" xmlns="http://www.w3.org/2000/svg">
<path d="M67.1398 64.757C78.6559 58.3205 87.4624 53.4164 88.215 53.0333C90.6236 51.7307 93.1075 48.2825 88.215 45.6007C86.6344 44.7578 78.129 40.007 67.1398 33.877L52.0107 49.3553L67.1398 64.757Z" fill="#FFDD33"/>
<path d="M52.0108 49.3552L3.68823 98.9318C4.81726 99.0851 6.09683 98.7786 7.60221 97.9357C10.7635 96.1733 44.3334 77.4767 67.1398 64.7569L52.0108 49.3552Z" fill="#FF6666"/>
<path d="M52.0108 49.3552L67.1398 33.8768C67.1398 33.8768 10.9893 2.69031 7.60216 0.851296C6.32259 0.0850423 4.89249 -0.144834 3.61292 0.0850422L52.0108 49.3552Z" fill="#7BFF7B"/>
<path d="M52.0108 49.3551L3.6129 0.0849609C1.65591 0.544713 0 2.3071 0 5.9085C0 11.6554 0 88.2808 0 93.1082C0 96.4031 1.27957 98.7785 3.68817 99.0083L52.0108 49.3551Z" fill="#6ED8FF"/>
</svg>
